# xmcd CD database file
#
# Track frame offsets:
#	150
#	13781
#	35451
#	59033
#	73419
#	88325
#	114167
#	125100
#	140747
#	159152
#	178027
#	193667
#	209586
#	225301
#	251604
#	262214
#	271789
#	287735
#	303676
#	322256
#	333673
#
# Disc length: 4683 seconds
#
# Revision: 4
# Processed by: cddbd v1.5.2PL0 Copyright (c) Steve Scherf et al.
# Submitted via: CDex 1.51
#
DISCID=54124915
DTITLE=Various Artist - New Orleans Revival 1940 - 1954
DYEAR=2006
DGENRE=Jazz
TTITLE0=The Entertainer - Bunk Johnson - Last Testament
TTITLE1=Sheik of Araby - with Herb Morand
TTITLE2=Jerusalem Blues - George Lewis Jam Session
TTITLE3=Streets of the City - Paul Barbarin and his N.O. Band
TTITLE4=Hindustan - With Emile Barnes
TTITLE5=West Lawn Dirge - Eureka Brass Band
TTITLE6=Ciribiribin - The Louisiana Joymakers
TTITLE7=St Louis Blues - Kid Thomas and his Algiers Stompers
TTITLE8=When the Saints Go Marching in - Oscar Celestin's Tuxedo Jazz Band
TTITLE9=See See Rider - Kid Clayton's Happy Pals
TTITLE10=Blues in G - With Emile Barnes
TTITLE11=Down in Honky Tonk Town - With Percy Humphrey
TTITLE12=Milenberg Joys - Freddie Kohlman and his Band
TTITLE13=Cream - George Lewis and his Ragtime Band 
TTITLE14=Basin Street Blues - Jack Delaney and his N.O. Jazz Babies 
TTITLE15=Darktown Strutters Ball - Lizzie Miles w/ George Lewis and his Ragtime Band
TTITLE16=Lord Lord Lord You Sure Been Good to Me - George Lewis and his Ragtime Band
TTITLE17=Darktown Strutters Ball - Kid Ory and his Creole Jazz Band
TTITLE18=Somebody Else is Taking My Place - George Lewis Band
TTITLE19=Just a Closer Walk With Thee - George Lewis Band
TTITLE20=High Society - Oscar Celestin and his Tuxedo Jazz Band
EXTD=YEAR: 2006
EXTT0=
EXTT1=
EXTT2=
EXTT3=
EXTT4=
EXTT5=
EXTT6=
EXTT7=
EXTT8=
EXTT9=
EXTT10=
EXTT11=
EXTT12=
EXTT13=
EXTT14=
EXTT15=
EXTT16=
EXTT17=
EXTT18=
EXTT19=
EXTT20=
PLAYORDER=
